# xmcd CD database file
#
# Track frame offsets:
#	150
#	21172
#	43154
#	60128
#	78720
#	94229
#	118830
#	128727
#	147215
#	164351
#	190590
#	208868
#	232486
#
# Disc length: 3257 seconds
#
# Revision: 0
# Processed by: cddbd v1.5.2PL0 Copyright (c) Steve Scherf et al.
# Submitted via: CDex 1.50
#
DISCID=ba0cb70d
DTITLE=Linx, Fresu, Wissels, Heartland - The Whistleblowers
DYEAR=2015
DGENRE=Jazz
TTITLE0=As One
TTITLE1=December
TTITLE2=This Dwelling Place
TTITLE3=The Whistleblowers
TTITLE4=Trailblazers
TTITLE5=Paris
TTITLE6=Contradiction Takes Its Place - part 1
TTITLE7=Contradiction Takes Its Place - part 2
TTITLE8=O Grande Kilapy
TTITLE9=Le Tue Mani
TTITLE10=Dredge Up
TTITLE11=Shake Up Your Trust
TTITLE12=Confusion
EXTD=YEAR: 2015
EXTT0=
EXTT1=
EXTT2=
EXTT3=
EXTT4=
EXTT5=
EXTT6=
EXTT7=
EXTT8=
EXTT9=
EXTT10=
EXTT11=
EXTT12=
PLAYORDER=
